<?xml version="1.0" encoding="utf-8"?>
<!-- Generator: Adobe Illustrator 27.0.0, SVG Export Plug-In . SVG Version: 6.00 Build 0)  -->
<svg version="1.1" id="Layer_1" xmlns="http://www.w3.org/2000/svg" xmlns:xlink="http://www.w3.org/1999/xlink" x="0px" y="0px"
	 viewBox="0 0 106.9 122.9" style="enable-background:new 0 0 106.9 122.9;" xml:space="preserve">
<style type="text/css">
	.st0{fill-rule:evenodd;clip-rule:evenodd;fill:#5F30E2;}
</style>
<g>
	<path class="st0" d="M39.6,64.6c-1.5,0-2.6-1.4-2.6-3.1c0-1.7,1.2-3.1,2.6-3.1h34.9c1.5,0,2.6,1.4,2.6,3.1c0,1.7-1.2,3.1-2.6,3.1
		H39.6L39.6,64.6z M46.8,116.6c1.7,0,3.2,1.4,3.2,3.2s-1.4,3.2-3.2,3.2H7.3c-2,0-3.8-0.8-5.2-2.2S0,117.6,0,115.6V7.3
		c0-2,0.8-3.8,2.2-5.2S5.3,0,7.3,0h90c2,0,3.8,0.8,5.2,2.2c1.3,1.3,2.2,3.2,2.2,5.2v50.1c0,1.7-1.4,3.2-3.2,3.2s-3.2-1.4-3.2-3.2
		V7.3c0-0.3-0.1-0.5-0.3-0.7c-0.2-0.2-0.4-0.3-0.7-0.3h-90C7,6.3,6.8,6.4,6.6,6.6C6.4,6.8,6.3,7.1,6.3,7.3v108.2
		c0,0.3,0.1,0.5,0.3,0.7c0.2,0.2,0.4,0.3,0.7,0.3L46.8,116.6L46.8,116.6z M98.7,74.3c-0.5-0.5-1.1-0.7-1.8-0.7s-1.3,0.3-1.7,0.8
		l-3.9,4.1l11,10.6l3.9-4.1c0.5-0.5,0.7-1.1,0.7-1.8c0-0.7-0.2-1.3-0.7-1.7L98.7,74.3L98.7,74.3z M78.2,114
		c-1.4,0.5-2.9,0.9-4.3,1.4c-1.4,0.5-2.9,1-4.3,1.4c-3.4,1.1-5.3,1.7-5.7,1.8c-0.4,0.1-0.2-1.5,0.7-4.8l2.7-10.4l0,0l20.6-21.4
		l11,10.6L78.2,114L78.2,114z M39.6,87c-1.5,0-2.7-1.4-2.7-3.2s1.2-3.2,2.7-3.2h17.2c1.5,0,2.7,1.4,2.7,3.2S58.3,87,56.8,87H39.6
		L39.6,87z M39.6,42.3c-1.5,0-2.6-1.4-2.6-3.1c0-1.7,1.2-3.1,2.6-3.1h34.9c1.5,0,2.6,1.4,2.6,3.1c0,1.7-1.2,3.1-2.6,3.1H39.6
		L39.6,42.3z M24.5,79.5c2.1,0,3.7,1.7,3.7,3.7c0,2.1-1.7,3.7-3.7,3.7c-2.1,0-3.7-1.7-3.7-3.7S22.4,79.5,24.5,79.5L24.5,79.5z
		 M24.5,57.4c2.1,0,3.7,1.7,3.7,3.7c0,2.1-1.7,3.7-3.7,3.7c-2.1,0-3.7-1.7-3.7-3.7C20.8,59.1,22.4,57.4,24.5,57.4L24.5,57.4z
		 M24.5,35.4c2.1,0,3.7,1.7,3.7,3.7c0,2.1-1.7,3.7-3.7,3.7c-2.1,0-3.7-1.7-3.7-3.7C20.8,37.1,22.4,35.4,24.5,35.4L24.5,35.4z"/>
</g>
</svg>
